<svg height="213.45" viewBox="0 0 688 213.45" width="688" xmlns="http://www.w3.org/2000/svg"><g fill="#1a193c" transform="translate(-19.5 -1.71)"><path d="m400.16 68.43c.75-5.32 1.41-10.13 2.06-14.76 4.48.92 8.8 2 13.16 2.66 4.95.79 10 1.21 14.93 1.86 1.43.19 3.26.09 3.62 1.88s-1.06 2.69-2.33 3.44c-3.25 1.92-6.51 3.85-9.89 5.51a2.84 2.84 0 0 0 -2 3q.08 48.17 0 96.31c0 9.84-1.85 19.3-7.31 27.57-7.91 12.06-19.17 18.74-33.59 19.21a69 69 0 0 1 -42.13-12.16c-1.36-.93-2.83-1.83-3.18-4.23a18.71 18.71 0 0 1 3.51 0c5.44 1.15 10.85 2.63 16.31 3.62a48.76 48.76 0 0 0 22.81-.87c12.91-3.9 21.25-14.08 22.06-27.52.33-5.53 0-11.12 0-16.88-1.05 1.11-2.07 2.27-3.18 3.34-6.77 6.66-15.15 9.65-24.41 10.48-7.31.68-14.47.21-21.37-2.6a39.4 39.4 0 0 1 -19.09-16.42c-5.36-8.72-7.83-18.38-8.86-28.44a93 93 0 0 1 4.08-39.72c3-8.79 7.24-16.89 14.35-23.05 8.76-7.67 19.15-10.21 30.57-9.44 7.44.51 14.48 2.17 20.42 6.95a78.74 78.74 0 0 1 7.59 7.83 25.85 25.85 0 0 1 1.87 2.43zm-1.55 42.27c0-7.73-.18-15.47.09-23.19a10.11 10.11 0 0 0 -2.7-7.32c-.76-.91-1.51-1.81-2.31-2.68-7.8-8.44-17.47-11.27-28.51-8.44-8.59 2.19-14.17 8.29-18 16.06a53.48 53.48 0 0 0 -4.83 19.12c-.86 10.45-.35 20.75 3.25 30.75 4 10.85 11 18.35 23.24 19.2 10 .67 19-1.8 25.58-10 2.7-3.33 4.49-6.85 4.28-11.45-.33-7.32-.09-14.75-.09-22.05z"/><path d="m517.16 101.2c-.19-6.82.62-13.39-1.72-19.76-2.67-7.32-7.8-11.9-15.37-13.26a37.88 37.88 0 0 0 -28.33 5.22 5.68 5.68 0 0 0 -1.87 2.41c-1.58 3.35-2.94 6.8-4.57 10.13a8.39 8.39 0 0 1 -2.62 3.14 5.72 5.72 0 0 1 -3.77.77c-1.43-.28-1.55-1.82-1.72-3.17-.54-4.54-.94-9.11-1.89-13.56-.64-3-2.13-5.76-3.34-8.9a31 31 0 0 1 9.13-6.5 67.16 67.16 0 0 1 22.29-6c8.67-.93 17.34-1.31 25.85 1 10.21 2.76 18.89 7.73 24.41 17.16 3.4 5.78 4.5 12.06 4.51 18.69 0 17.58.2 35.16-.07 52.73-.13 9.4 2.57 17.37 9.45 23.87a29.43 29.43 0 0 1 2.6 3.19l-.33.64a21.45 21.45 0 0 1 -3 0c-6.22-.84-11.47-3.78-16.31-7.6a35.91 35.91 0 0 1 -9.92-12c-.92 1.2-1.71 2.28-2.55 3.33-8.93 11.31-20.5 17.55-35 18.35-8.95.48-17.31-1-24.67-6.33-9.33-6.73-13.46-16.08-13.27-27.38a32 32 0 0 1 9.41-22.37c6.47-6.63 14.57-10.33 23.54-12.27a77.94 77.94 0 0 1 17.37-1.54c6.51.07 13 0 19.54 0zm0 14.36c-8.87 0-17.42-.16-26 0a27.79 27.79 0 0 0 -13.54 4.17c-5 3-9.06 6.9-10.85 12.7-3 9.82 2.31 19.3 11.8 20.65 15.4 2.16 28.07-2.77 37.57-15.22a4.81 4.81 0 0 0 .89-2.69c.09-4.51 0-9 0-13.54z"/><path d="m124.34 168.91a21.5 21.5 0 0 1 -3.21 0 38.56 38.56 0 0 1 -25.83-19c-3.7 3.75-7.24 7.77-11.19 11.22-7.17 6.2-15.78 9.13-25.11 9.87a43.09 43.09 0 0 1 -17.44-1.76 31.94 31.94 0 0 1 -22-31.93c.6-14 7.9-23.76 20-30.15 8.74-4.59 18.25-6 28.06-6h24c0-7.77.82-15.5-2.94-22.63-3.56-6.69-9.32-10.15-16.68-10.87-9.14-.93-17.8.52-25.6 5.62a6.4 6.4 0 0 0 -2 2.41c-1.9 3.8-3.61 7.67-5.52 11.49a5.53 5.53 0 0 1 -.94 1.21 3.92 3.92 0 0 1 -4.5 1.61c-1.76-.61-1.87-2.3-1.93-3.87a47.36 47.36 0 0 0 -3.24-17.23 8.49 8.49 0 0 0 -1.12-2.33c-1.41-1.71-.64-2.77.77-3.93a47 47 0 0 1 19.15-9 84.19 84.19 0 0 1 30.61-2.11c9.56 1.2 18.2 4.72 25.19 11.61s9.65 15.34 9.65 24.88v53.27a61.51 61.51 0 0 0 .9 9.76c1 5.81 4.83 10 8.6 14.25.86.94 1.67 1.93 2.49 2.89a1.8 1.8 0 0 1 -.17.72zm-32.68-53.43c-.56 0-.86-.12-1.21-.12-7.5 0-15-.08-22.5 0a31.33 31.33 0 0 0 -15.95 4.42c-6.54 4-11.11 9.3-11.44 17.33-.35 8.44 4.66 14.93 12.61 16 15.49 2.11 28.16-2.93 37.65-15.49a3 3 0 0 0 .73-1.63c.1-6.74.09-13.54.09-20.52z"/><path d="m227.32 62.24a35.27 35.27 0 0 0 -4.75 14c-.4 2.93-.5 5.91-.73 8.86-.12 1.46-.3 2.93-2 3.46a3.35 3.35 0 0 1 -4-1.3c-1.84-2.75-4.16-5.44-5.09-8.44-2-6.79-7.15-9.36-13.18-10.65-7.55-1.61-15.15-1.74-22.36 1.76a15.92 15.92 0 0 0 -9.21 15.68 10 10 0 0 0 5.35 8.39 69.58 69.58 0 0 0 11.07 4.71c7.89 2.53 16 4.54 23.83 7.15a46.7 46.7 0 0 1 17.28 9.56c8.58 7.86 10.78 17.81 8.61 28.8-2.41 12.31-10.6 19.78-22.1 23.55-14.32 4.71-28.86 5.2-43.26.28-8.29-2.83-14.86-7.89-18.22-16.32a23.5 23.5 0 0 1 -1.1-14.37 9.18 9.18 0 0 1 1.73-2.62 13.47 13.47 0 0 1 2.57 1.86 8.64 8.64 0 0 1 1.68 2.87c2.63 7.52 8.44 11.35 15.68 13.42a64.49 64.49 0 0 0 25.32 2.27 21.92 21.92 0 0 0 11.89-4.83 15.34 15.34 0 0 0 -1.74-24.44c-5.12-3.46-10.86-5.28-16.78-6.82-8.44-2.2-17.15-4-25-8.21-6.74-3.62-12.54-8.16-15.86-15.31-4.75-10.23-2.26-23.67 5.67-31.66 7-7 15.68-10.4 25.07-11.9a76.21 76.21 0 0 1 34.13 2.09 47.35 47.35 0 0 1 15.5 8.16z"/><path d="m292.73 53.2v2.41q.22 47 .4 93.91a3.09 3.09 0 0 0 2.07 3.14c4 2.18 7.9 4.59 11.76 7a10.57 10.57 0 0 1 2.41 2.54c1.87 2.42 1.21 5-1.68 6.09a11.4 11.4 0 0 1 -4 .61q-21.1.06-42.21 0a10.89 10.89 0 0 1 -4.48-.9c-2.61-1.2-3-3.53-1.21-5.82 2.78-3.56 6.64-5.71 10.49-7.83a29 29 0 0 1 4-1.89 2.31 2.31 0 0 0 1.68-2.62q-.08-35.09 0-70.16c0-2.66-.09-5.32 0-8 .06-1.43-.45-1.95-1.75-2.42-4.18-1.67-8.27-3.61-12.41-5.4a4.25 4.25 0 0 1 -.8-.46c-1.2-.9-2.61-1.88-2.2-3.62s2.11-1.66 3.53-1.71a149.38 149.38 0 0 0 31.09-4c1.04-.23 2.01-.52 3.31-.87z"/><path d="m293.06 13.1a11.25 11.25 0 0 1 -11.25 11.23 11.43 11.43 0 0 1 -11.29-11.42 11.26 11.26 0 0 1 11.28-11.2h.14a11.12 11.12 0 0 1 11.12 11.14z"/><path d="m707.15 57a4.89 4.89 0 0 1 -.5.52 8.45 8.45 0 0 1 -5.82 2.24 21.81 21.81 0 0 1 -6.78-.65c-.76-.22-1.1 0-1.3.71s-.46 1.4-.71 2.1c-2.86 7.83-6.56 15.18-12.4 21.27-.15.16-.24.32-.46.59 1.65 1.57 3.19 3 4.72 4.51 1.2 1.21 1.3 1.58.61 3.14a9.73 9.73 0 0 1 -8.6 6.14 10 10 0 0 1 -4.53-.57 8.46 8.46 0 0 1 -5.27-6.2c-.29-1-.1-1.64.54-2a6.39 6.39 0 0 1 3.79-.41c1 .18 1 1.2 1.38 2 .09.18.18.35.28.52a3.37 3.37 0 0 0 4.21 1.62c1.21-.39 1.4-1 .66-2a13 13 0 0 0 -2.54-2.42 82.43 82.43 0 0 0 -9.72-6.31c-.68-.41-4.27-2-5-1.67-2.28 1.21-12.06 7.59-14 7.47-4.12-.25-11.74-12.26-12.22-12.26h-13l-9.2 10.72-.64.92-6.11 8.59v55.59c.13.45.76.79 1.64 1.11 1.54.56 13.49 7.16 15.48 9.94l.09.13c1.2 2 2 3.8-.71 5.42a7.38 7.38 0 0 1 -3.27.93c-7.48.41-38.26.43-46.12 0a7.34 7.34 0 0 1 -3.26-.93c-2.73-1.62-1.91-3.47-.72-5.42l.1-.13c2.41-3.36 9-6.86 13.43-9.29a10.79 10.79 0 0 0 2.85-1.74v-80.46a2.36 2.36 0 0 0 -1.82-1.51s-13.27-4.82-15.17-7.74 2.19-3.33 2.19-3.33a72.67 72.67 0 0 0 14.8-1c9.39-1.37 19.07-3.53 20.5-3.85v13.38c6.77-6.43 15-10.59 24.52-13.71a38.7 38.7 0 0 1 18.22-1.45 81.89 81.89 0 0 1 11.22 2.83 119.91 119.91 0 0 0 12.89 3.55 7.64 7.64 0 0 0 9-4.73c.88-2 .88-2-.85-3.22l-.5-.35c-4.65-3.39-6.79-8.11-7.32-13.7-.11-1.2.41-1.75 1.59-1.87a3.47 3.47 0 0 1 .91 0 21.58 21.58 0 0 1 7.77 2.31 13.25 13.25 0 0 1 5.77 5.82c.18.4.43.79.59 1.21a2 2 0 0 0 1.77 1.34c2.1.33 4.17.85 6.27 1.2a3.4 3.4 0 0 1 2.79 2.54 6.88 6.88 0 0 0 4.69 4.63 5.68 5.68 0 0 1 .78.39c.68.4 1.49.72 2.17 1.21a1.63 1.63 0 0 1 .36 2.28z"/></g></svg>